<?xml version="1.0" encoding="utf-8"?>
<!-- Generator: Adobe Illustrator 22.1.0, SVG Export Plug-In . SVG Version: 6.00 Build 0)  -->
<svg version="1.1" id="Layer_1" xmlns="http://www.w3.org/2000/svg" xmlns:xlink="http://www.w3.org/1999/xlink" x="0px" y="0px"
	 viewBox="0 0 20 20" style="enable-background:new 0 0 20 20;" xml:space="preserve">
<style type="text/css">
	.st0{fill:#505050;}
</style>
<g>
	<g>
		<path class="st0" d="M7,10.5H4.8V13h2.1c0.2,0,0.4,0,0.6-0.1c0.2,0,0.3-0.1,0.5-0.2c0.1-0.1,0.2-0.2,0.3-0.4s0.1-0.3,0.1-0.6
			c0-0.5-0.1-0.8-0.4-1C7.7,10.6,7.4,10.5,7,10.5z"/>
		<path class="st0" d="M14,9c-0.3,0-0.5,0-0.7,0.1S13,9.3,12.8,9.5c-0.1,0.1-0.2,0.3-0.2,0.5s-0.1,0.3-0.1,0.4h2.9
			c-0.1-0.5-0.2-0.8-0.5-1C14.7,9.1,14.4,9,14,9z"/>
		<path class="st0" d="M7.7,8.9C7.9,8.7,8,8.4,8,8.1c0-0.2,0-0.4-0.1-0.5C7.8,7.4,7.7,7.3,7.6,7.2C7.5,7.1,7.3,7.1,7.2,7.1
			C7,7,6.8,7,6.7,7H4.8v2.1h2C7.2,9.1,7.5,9.1,7.7,8.9z"/>
		<path class="st0" d="M10,0C4.5,0,0,4.5,0,10s4.5,10,10,10s10-4.5,10-10S15.5,0,10,0z M12.1,5.9h3.7v1h-3.7V5.9z M10.1,13.1
			c-0.2,0.3-0.4,0.6-0.7,0.8s-0.6,0.4-1,0.5s-0.8,0.2-1.2,0.2H2.8V5.5h4.3c0.4,0,0.8,0,1.2,0.1C8.6,5.7,8.9,5.8,9.2,6
			s0.5,0.4,0.6,0.7c0.1,0.2,0.2,0.6,0.2,1c0,0.5-0.1,0.8-0.3,1.1c-0.3,0.4-0.6,0.6-1,0.8c0.6,0.2,1,0.4,1.3,0.8
			c0.3,0.4,0.4,0.9,0.4,1.5C10.4,12.4,10.3,12.8,10.1,13.1z M12.9,12.8c0.3,0.3,0.7,0.4,1.2,0.4c0.4,0,0.7-0.1,0.9-0.3
			c0.3-0.2,0.4-0.4,0.5-0.6h1.6c-0.3,0.8-0.6,1.3-1.2,1.7c-0.5,0.3-1.2,0.5-1.9,0.5c-0.5,0-1-0.1-1.4-0.2c-0.4-0.2-0.8-0.4-1.1-0.7
			s-0.5-0.7-0.7-1.1c-0.2-0.4-0.2-0.9-0.2-1.4s0.1-0.9,0.2-1.4c0.2-0.4,0.4-0.8,0.7-1.1s0.6-0.6,1.1-0.7C13,7.7,13.5,7.6,14,7.6
			c0.6,0,1,0.1,1.5,0.3c0.4,0.2,0.8,0.5,1,0.9c0.3,0.4,0.5,0.8,0.6,1.2c0.1,0.5,0.2,1,0.1,1.5h-4.7C12.5,12.1,12.6,12.5,12.9,12.8z"
			/>
	</g>
</g>
</svg>
