<?xml version="1.0" encoding="utf-8"?>
<!-- Generator: Adobe Illustrator 22.1.0, SVG Export Plug-In . SVG Version: 6.00 Build 0)  -->
<svg version="1.1" id="Layer_1" xmlns="http://www.w3.org/2000/svg" xmlns:xlink="http://www.w3.org/1999/xlink" x="0px" y="0px"
	 viewBox="0 0 20 20" style="enable-background:new 0 0 20 20;" xml:space="preserve">
<style type="text/css">
	.st0{fill:#FFD6D2;}
	.st1{fill:#505050;}
</style>
<g>
	<ellipse class="st0" cx="10" cy="10" rx="10" ry="10"/>
	<path class="st1" d="M6.1,12c0.4,0.4,0.4,0.9,0,1.3c-0.2,0.2-0.4,0.3-0.6,0.3c-0.3,0-0.4-0.1-0.6-0.3l-2.7-2.7
		c-0.4-0.4-0.4-0.9,0-1.3l2.7-2.7c0.4-0.4,0.9-0.4,1.3,0s0.4,0.9,0,1.3L4.1,10L6.1,12z M12.6,6.7L9,13.9c-0.2,0.4-0.4,0.5-0.8,0.5
		c-0.2,0-0.3,0-0.4-0.1c-0.4-0.2-0.6-0.7-0.4-1.2L11.1,6c0.2-0.4,0.7-0.6,1.2-0.4C12.6,5.9,12.8,6.4,12.6,6.7z M17.8,10.6l-2.7,2.7
		c-0.2,0.2-0.4,0.3-0.6,0.3c-0.3,0-0.4-0.1-0.6-0.3c-0.4-0.4-0.4-0.9,0-1.3L16,9.9l-2.1-2.1c-0.4-0.4-0.4-0.9,0-1.3
		c0.4-0.4,0.9-0.4,1.3,0l2.7,2.7C18.1,9.7,18.1,10.2,17.8,10.6z"/>
</g>
</svg>
