<?xml version="1.0" encoding="utf-8"?>
<!-- Generator: Adobe Illustrator 22.1.0, SVG Export Plug-In . SVG Version: 6.00 Build 0)  -->
<svg version="1.1" id="Layer_1" xmlns="http://www.w3.org/2000/svg" xmlns:xlink="http://www.w3.org/1999/xlink" x="0px" y="0px"
	 viewBox="0 0 20 20" style="enable-background:new 0 0 20 20;" xml:space="preserve">
<style type="text/css">
	.st0{fill:#FFD6D2;}
	.st1{fill:#505050;}
</style>
<g>
	<ellipse class="st0" cx="10" cy="10" rx="10" ry="10"/>
	<g>
		<path class="st1" d="M15.1,6.3c0.2,0.1,0.3,0.2,0.3,0.4v8.6c0,0.1-0.1,0.3-0.2,0.4c-0.1,0.1-0.3,0.2-0.4,0.2
			c-0.5,0-0.7-0.2-0.7-0.6v-8c0-0.1-0.1-0.2-0.2-0.3L7.7,3.7C7.3,3.6,7,3.7,6.6,3.9C6.2,4.1,5.9,4.3,5.8,4.6L12,8.1
			c0.2,0.1,0.3,0.2,0.3,0.4v8.4c0,0.2-0.1,0.4-0.3,0.4c-0.1,0-0.1,0.1-0.2,0.1c-0.1,0-0.2,0-0.3-0.1s-1.1-0.7-3.1-1.9
			s-3.1-1.9-3.2-2c-0.3-0.2-0.4-0.4-0.4-0.5l-0.1-8c0-0.3,0.1-0.6,0.2-0.8c0.3-0.5,0.8-0.9,1.6-1.2s1.3-0.4,1.8-0.1L15.1,6.3"/>
	</g>
</g>
</svg>
