<?xml version="1.0" encoding="utf-8"?>
<!-- Generator: Adobe Illustrator 22.1.0, SVG Export Plug-In . SVG Version: 6.00 Build 0)  -->
<svg version="1.1" id="Layer_1" xmlns="http://www.w3.org/2000/svg" xmlns:xlink="http://www.w3.org/1999/xlink" x="0px" y="0px"
	 viewBox="0 0 20 20" style="enable-background:new 0 0 20 20;" xml:space="preserve">
<style type="text/css">
	.st0{fill-rule:evenodd;clip-rule:evenodd;fill:#FFD6D2;}
	.st1{fill:#323031;}
</style>
<g>
	<ellipse transform="matrix(0.1602 -0.9871 0.9871 0.1602 -1.4727 18.2691)" class="st0" cx="10" cy="10" rx="10" ry="10"/>
	<g>
		<path class="st1" d="M17.5,7.4l-7.3-2.9c-0.1,0-0.3,0-0.4,0L2.5,7.4C2.3,7.4,2.2,7.6,2.2,7.9c0,0,0,0.1,0,0.1c0,0.1,0,0.1,0,0.2
			v3.8c0,0.4,0.3,0.8,0.8,0.8c0.4,0,0.8-0.3,0.8-0.8V8.8l6.1,2.1c0.1,0,0.1,0,0.2,0c0.1,0,0.1,0,0.2,0l7.3-2.6
			c0.3-0.1,0.4-0.4,0.3-0.7C17.7,7.5,17.6,7.4,17.5,7.4L17.5,7.4z"/>
		<path class="st1" d="M14,10.7l-4,1.4l-4-1.4c-0.3-0.1-0.6,0-0.7,0.3c0,0.1,0,0.1,0,0.2v2.6c0,0.2,0.1,0.4,0.3,0.5l3.1,1.1
			c0.8,0.3,1.6,0.3,2.4,0l3.1-1.1c0.2-0.1,0.3-0.3,0.3-0.5v-2.6c0-0.3-0.2-0.5-0.5-0.5C14.1,10.6,14,10.6,14,10.7L14,10.7z"/>
	</g>
</g>
</svg>
