<?xml version="1.0" encoding="utf-8"?>
<!-- Generator: Adobe Illustrator 22.1.0, SVG Export Plug-In . SVG Version: 6.00 Build 0)  -->
<svg version="1.1" id="Layer_1" xmlns="http://www.w3.org/2000/svg" xmlns:xlink="http://www.w3.org/1999/xlink" x="0px" y="0px"
	 viewBox="0 0 20 20" style="enable-background:new 0 0 20 20;" xml:space="preserve">
<style type="text/css">
	.st0{fill:#FFD6D2;}
	.st1{fill:#505050;}
</style>
<g>
	<ellipse class="st0" cx="10" cy="10" rx="10" ry="10"/>
	<g>
		<path class="st1" d="M17.5,7.4l-7.3-2.9c-0.1,0-0.3,0-0.4,0L2.5,7.4c-0.2,0-0.3,0.2-0.3,0.5V8c0,0.1,0,0.1,0,0.2V12
			c0,0.4,0.3,0.8,0.8,0.8c0.4,0,0.8-0.3,0.8-0.8V8.8l6.1,2.1c0.1,0,0.1,0,0.2,0c0.1,0,0.1,0,0.2,0l7.3-2.6c0.3-0.1,0.4-0.4,0.3-0.7
			C17.7,7.5,17.6,7.4,17.5,7.4L17.5,7.4z"/>
		<path class="st1" d="M14,10.7l-4,1.4l-4-1.4c-0.3-0.1-0.6,0-0.7,0.3c0,0.1,0,0.1,0,0.2v2.6c0,0.2,0.1,0.4,0.3,0.5l3.1,1.1
			c0.8,0.3,1.6,0.3,2.4,0l3.1-1.1c0.2-0.1,0.3-0.3,0.3-0.5v-2.6C14.5,10.9,14.3,10.7,14,10.7C14.1,10.6,14,10.6,14,10.7L14,10.7z"/>
	</g>
</g>
</svg>
