<?xml version="1.0" encoding="utf-8"?>
<!-- Generator: Adobe Illustrator 22.1.0, SVG Export Plug-In . SVG Version: 6.00 Build 0)  -->
<svg version="1.1" id="Layer_1" xmlns="http://www.w3.org/2000/svg" xmlns:xlink="http://www.w3.org/1999/xlink" x="0px" y="0px"
	 viewBox="0 0 20 20" style="enable-background:new 0 0 20 20;" xml:space="preserve">
<style type="text/css">
	.st0{fill:#505050;}
</style>
<path class="st0" d="M10,0C4.5,0,0,4.5,0,10s4.5,10,10,10s10-4.5,10-10S15.5,0,10,0z M4.8,12.9L4.8,12.9V8.4V8.3h0.1l3,1.7
	c0,0,0,0,0,0.1c0,0,0,0,0,0.1L4.8,12.9C4.9,12.9,4.9,12.9,4.8,12.9L4.8,12.9z M14.8,14.2H5.1c0,0-0.1,0-0.2,0c0,0,0,0,0-0.1V14
	l3.8-3.5h0.1l1,0.6c0.2,0.1,0.3,0.1,0.4,0l1.1-0.7c0.1,0,0.1,0,0.1,0l3.4,3.6C14.8,14.1,14.9,14.1,14.8,14.2L14.8,14.2z M15.2,13
	C15.2,13,15.2,13.1,15.2,13l-0.1,0.1c0,0,0,0-0.1,0l-2.8-3c0,0,0,0,0-0.1V9.9L15,8.2h0.1l0.1,0.1V13z M15.2,7.2L15.2,7.2
	c-0.1,0.1-0.1,0.1-0.1,0.1s0,0-0.1,0l-5,2.9c0,0,0,0-0.1,0l0,0L4.8,7.3c0,0-0.1,0-0.1-0.1V6.1c0-0.1,0-0.2,0.1-0.3
	c0.1,0,0.2,0,0.3,0h9.7c0.1,0,0.2,0,0.2,0.1C15.1,6,15.1,6,15.1,6.2v1H15.2z"/>
</svg>
