<?xml version="1.0" encoding="utf-8"?>
<!-- Generator: Adobe Illustrator 22.1.0, SVG Export Plug-In . SVG Version: 6.00 Build 0)  -->
<svg version="1.1" id="Layer_1" xmlns="http://www.w3.org/2000/svg" xmlns:xlink="http://www.w3.org/1999/xlink" x="0px" y="0px"
	 viewBox="0 0 26 26" style="enable-background:new 0 0 26 26;" xml:space="preserve">
<style type="text/css">
	.st0{fill:#FFFFFF;}
</style>
<g>
	<g>
		<path class="st0" d="M13,0C5.8,0,0,5.8,0,13c0,5.8,3.7,10.6,8.9,12.3c0.6,0.1,0.9-0.3,0.9-0.6c0-0.3,0-1.3,0-2.4
			c-3.3,0.6-4.1-0.8-4.4-1.5c-0.1-0.4-0.8-1.5-1.3-1.8c-0.5-0.2-1.1-0.8,0-0.9c1,0,1.8,0.9,2,1.3c1.2,2,3,1.4,3.8,1.1
			c0.1-0.8,0.5-1.4,0.8-1.7c-2.9-0.3-5.9-1.4-5.9-6.4c0-1.4,0.5-2.6,1.3-3.5C5.9,8.5,5.5,7.2,6.2,5.4c0,0,1.1-0.3,3.6,1.3
			c1-0.3,2.1-0.4,3.3-0.4c1.1,0,2.2,0.1,3.3,0.4c2.5-1.7,3.6-1.3,3.6-1.3c0.7,1.8,0.3,3.1,0.1,3.4c0.8,0.9,1.3,2.1,1.3,3.5
			c0,5-3,6.1-5.9,6.4c0.5,0.4,0.9,1.2,0.9,2.4c0,1.7,0,3.1,0,3.6c0,0.3,0.2,0.7,0.9,0.6C22.3,23.6,26,18.7,26,13C26,5.8,20.2,0,13,0
			z"/>
	</g>
</g>
</svg>
