<?xml version="1.0" encoding="utf-8"?>
<!-- Generator: Adobe Illustrator 22.1.0, SVG Export Plug-In . SVG Version: 6.00 Build 0)  -->
<svg version="1.1" id="Layer_1" xmlns="http://www.w3.org/2000/svg" xmlns:xlink="http://www.w3.org/1999/xlink" x="0px" y="0px"
	 viewBox="0 0 20 20" style="enable-background:new 0 0 20 20;" xml:space="preserve">
<style type="text/css">
	.st0{fill:#FFD6D2;}
	.st1{fill:#505050;}
</style>
<g>
	<ellipse class="st0" cx="10" cy="10" rx="10" ry="10"/>
	<g>
		<path class="st1" d="M9.5,9.9C8.2,9.7,7.3,8.6,7.3,7.3c0-1,0.5-1.8,1.3-2.3c0.3,0.5,0.8,1.1,1.5,1.5C11,7,12,7.2,12.7,6.9
			c0,0.1,0,0.3,0,0.4c0,1.3-0.9,2.4-2.2,2.6c1.7-0.3,3.1-1.7,3.1-3.5c0-2-1.6-3.6-3.6-3.6S6.4,4.4,6.4,6.4C6.4,8.2,7.7,9.7,9.5,9.9z
			"/>
		<path class="st1" d="M12.7,10.9h-0.5c0,1.2-1,2.3-2.3,2.3s-2.3-1-2.3-2.3H7.3c-1.5,0-2.7,1.2-2.7,2.7v2.7c0,0.5,0.4,0.9,0.9,0.9h9
			c0.5,0,0.9-0.4,0.9-0.9v-2.7C15.4,12.1,14.2,10.9,12.7,10.9z"/>
	</g>
</g>
</svg>
