<?xml version="1.0" encoding="utf-8"?>
<!-- Generator: Adobe Illustrator 22.1.0, SVG Export Plug-In . SVG Version: 6.00 Build 0)  -->
<svg version="1.1" id="Layer_1" xmlns="http://www.w3.org/2000/svg" xmlns:xlink="http://www.w3.org/1999/xlink" x="0px" y="0px"
	 viewBox="0 0 20 20" style="enable-background:new 0 0 20 20;" xml:space="preserve">
<style type="text/css">
	.st0{fill:#505050;}
</style>
<path class="st0" d="M10,0C4.5,0,0,4.5,0,10s4.5,10,10,10s10-4.5,10-10S15.5,0,10,0z M15.3,14.7l-0.8,0.8c-0.1,0.1-0.6,0.2-0.6,0.2
	c-2.6,0-5.1-1-6.9-2.8s-2.9-4.4-2.8-7c0,0,0.1-0.4,0.2-0.6l0.8-0.8C5.5,4.3,6,4.1,6.4,4.3l0.2,0.1C7,4.5,7.4,5,7.5,5.4L8,6.8
	c0.1,0.4,0,1-0.3,1.3L7.1,8.7c0.5,2,2.1,3.6,4.1,4.1l0.6-0.5c0.3-0.3,0.9-0.5,1.3-0.3l1.5,0.4c0.4,0.1,0.9,0.5,1,0.9l0.1,0.2
	C15.8,13.8,15.6,14.4,15.3,14.7z"/>
</svg>
