<?xml version="1.0" encoding="utf-8"?>
<!-- Generator: Adobe Illustrator 22.1.0, SVG Export Plug-In . SVG Version: 6.00 Build 0)  -->
<svg version="1.1" id="Layer_1" xmlns="http://www.w3.org/2000/svg" xmlns:xlink="http://www.w3.org/1999/xlink" x="0px" y="0px"
	 viewBox="0 0 20 20" style="enable-background:new 0 0 20 20;" xml:space="preserve">
<style type="text/css">
	.st0{fill:#505050;}
</style>
<path class="st0" d="M10,0C4.5,0,0,4.5,0,10s4.5,10,10,10s10-4.5,10-10S15.5,0,10,0z M15.5,6.6l-1.7,8.1c-0.1,0.6-0.5,0.7-1,0.4
	l-2.6-1.9l-1.3,1.2c-0.1,0.1-0.3,0.3-0.5,0.3L8.6,12l4.9-4.4c0.2-0.2,0-0.3-0.3-0.1l-6,3.8l-2.6-0.8c-0.7-0.1-0.7-0.5,0-0.8
	l10.2-3.9C15.2,5.6,15.6,5.9,15.5,6.6z"/>
</svg>
